# xmcd
#
# Track frame offsets:
#	150
#	11494
#	25594
#	36364
#	50365
#	61771
#	76082
#	86417
#	96170
#	112115
#	124896
#	138263
#
# Disc length: 2028 seconds
#
# Revision: 0
# Processed by: cddbd v1.5.2PL0 Copyright (c) Steve Scherf et al.
# Submitted via: EZCDAudioConverter 2.1.7.1
#
DISCID=8e07ea0c
DTITLE=Marty Robbins - Hawaii's Calling Me
DYEAR=2013
DGENRE=Country
TTITLE0=Lovely Hula Hands
TTITLE1=The Sea and Me
TTITLE2=Love Song Of Kalua
TTITLE3=The Night I Came Ashore
TTITLE4=Echo Island
TTITLE5=Kuu Ipo Lani (My Sweetheart Lani)
TTITLE6=The Hawaiian Wedding Song
TTITLE7=Drowsy Waters (Wailana)
TTITLE8=Hawaiian Bells
TTITLE9=My Wonderful 1
TTITLE10=Blue Sand
TTITLE11=Hawaii's Calling Me
EXTD=
EXTT0=
EXTT1=
EXTT2=
EXTT3=
EXTT4=
EXTT5=
EXTT6=
EXTT7=
EXTT8=
EXTT9=
EXTT10=
EXTT11=
PLAYORDER=
